Coordinates
version=1
nRows=12
nColumns=38
inDegrees=yes

Units are S.I. units (second, meters, Newtons, ...)
Angles are in degrees.

endheader
time	pelvis_tilt	pelvis_list	pelvis_rotation	pelvis_tx	pelvis_ty	pelvis_tz	hip_flexion_r	hip_adduction_r	hip_rotation_r	knee_angle_r	ankle_angle_r	subtalar_angle_r	mtp_angle_r	hip_flexion_l	hip_adduction_l	hip_rotation_l	knee_angle_l	ankle_angle_l	subtalar_angle_l	mtp_angle_l	lumbar_extension	lumbar_bending	lumbar_rotation	arm_flex_r	arm_add_r	arm_rot_r	elbow_flex_r	pro_sup_r	wrist_flex_r	wrist_dev_r	arm_flex_l	arm_add_l	arm_rot_l	elbow_flex_l	pro_sup_l	wrist_flex_l	wrist_dev_l
      2.31000000	     20.79097052	     -8.83711068	     -0.32022019	      0.58728326	      0.91436101	     -0.18789365	    -43.12208945	      9.19481681	     -8.61252081	    -13.42540327	      2.30601112	     25.45357396	      0.00000000	      7.08725985	     -6.89789742	   -359.91040261	    -21.06059016	      8.15452874	     15.04184847	      0.00000000	    -28.10139528	     10.12322115	      8.77237390	      9.75563422	    -25.75247814	      9.30812157	     36.38438593	     86.51662706	      0.00000000	      0.00000000	     -5.57444647	     -9.96106931	      9.04975936	      4.87873657	     85.94366927	      0.00000000	      0.00000000
      2.32000000	     20.89004246	     -8.49916858	     -0.52793504	      0.60247584	      0.91369126	     -0.18727955	    -43.23175954	      8.55625891	     -8.14760130	    -14.91498356	      1.07296447	     25.01711169	      0.00000000	      6.82805368	     -6.48725012	   -360.22406508	    -21.84614443	      6.21091710	     14.73184887	      0.00000000	    -28.01977086	      9.54848462	      8.73997635	      9.32090076	    -25.44534141	      9.15423873	     36.17242988	     86.51662706	      0.00000000	      0.00000000	     -5.69020432	    -10.02443525	      9.17971818	      4.78137196	     85.94366927	      0.00000000	      0.00000000
      2.33000000	     21.12959344	     -8.15445587	     -0.60638168	      0.61733368	      0.91314449	     -0.18735614	    -43.40016783	      7.99105150	     -7.38354634	    -16.45163827	     -0.03063970	     24.80393029	      0.00000000	      6.74041706	     -5.97655346	   -359.75349670	    -23.56018971	      5.64663968	     14.54362407	      0.00000000	    -28.12138527	      9.06414096	      8.59619697	      8.94756861	    -25.27937360	      9.10385798	     35.94842364	     86.51662706	      0.00000000	      0.00000000	     -5.71650036	    -10.03015459	      9.22463808	      4.74190455	     85.94366927	      0.00000000	      0.00000000
      2.34000000	     20.84481616	     -7.68540227	     -0.46253235	      0.63180527	      0.91249119	     -0.18812712	    -42.45607726	      7.48966638	     -7.42489543	    -18.83958184	     -1.82285224	     23.37326574	      0.00000000	      7.36188757	     -5.10843740	   -358.22802781	    -25.67491965	      3.99511499	     11.38274200	      0.00000000	    -27.69787965	      8.64881342	      8.22863269	      8.38763248	    -24.88513041	      8.29130825	     35.66191934	     86.51662706	      0.00000000	      0.00000000	     -5.48148593	     -9.94425834	     10.17232678	      4.34789652	     85.94366927	      0.00000000	      0.00000000
      2.35000000	     20.89848069	     -7.28389904	     -0.46507788	      0.64626811	      0.91260152	     -0.18823656	    -41.76760483	      6.91801369	     -7.28570740	    -21.27950406	     -3.97806189	     22.56515091	      0.00000000	      7.54134977	     -4.56724491	   -357.82181820	    -27.71511827	      3.50428095	     10.56330495	      0.00000000	    -27.67982215	      8.15279680	      7.92503573	      8.00952080	    -24.50325398	      8.05500181	     35.21816525	     86.51662706	      0.00000000	      0.00000000	     -5.36181657	     -9.93788761	     10.33515042	      4.32611504	     85.94366927	      0.00000000	      0.00000000
      2.36000000	     20.38264502	     -6.66043994	     -0.05776790	      0.66105273	      0.91210034	     -0.18957138	    -40.15181452	      6.37456008	     -7.95376050	    -24.20971873	     -6.29684527	     21.52216631	      0.00000000	      8.11483075	     -3.48641807	   -356.30290474	    -29.09016510	      2.28658847	      8.39060791	      0.00000000	    -26.89318499	      7.73272893	      7.19949377	      7.41333485	    -24.06442031	      7.45015958	     34.63101291	     86.51662706	      0.00000000	      0.00000000	     -5.12840121	     -9.87497177	     10.95888897	      4.06100678	     85.94366927	      0.00000000	      0.00000000
      2.37000000	     20.21897344	     -5.88989334	     -0.04318780	      0.67588038	      0.91245020	     -0.19052021	    -38.69502404	      5.23606642	     -8.86066431	    -27.37062364	     -9.55281153	     21.09955297	      0.00000000	      7.96194800	     -2.30751712	   -355.41276530	    -30.05370212	      1.76360606	      7.17196281	      0.00000000	    -26.57075951	      7.00851264	      6.81728228	      6.68830550	    -23.76151036	      7.10398925	     34.27856190	     86.51662706	      0.00000000	      0.00000000	     -4.89221511	     -9.83840397	     11.53613940	      4.02941244	     85.94366927	      0.00000000	      0.00000000
      2.38000000	     20.24392187	     -5.34746388	     -0.33764143	      0.69042268	      0.91331096	     -0.19086078	    -37.29152640	      4.13446133	     -9.16503808	    -30.58325544	    -13.14966912	     20.05312090	      0.00000000	      7.43164670	     -1.42668584	   -354.98815933	    -31.01840872	      2.44772913	      6.72879676	      0.00000000	    -26.53608478	      6.35847689	      6.81461394	      6.05258373	    -23.48610452	      6.87131970	     33.80200395	     86.51662706	      0.00000000	      0.00000000	     -4.63379658	     -9.77576481	     11.67579112	      4.17732059	     85.94366927	      0.00000000	      0.00000000
      2.39000000	     19.96580716	     -4.42254414	     -0.71906064	      0.70462305	      0.91371335	     -0.19131497	    -35.25904112	      2.62727694	     -9.49196332	    -34.31704369	    -15.53461951	     18.98538403	      0.00000000	      6.96619902	      0.01561705	   -354.17599110	    -31.50609344	      2.84524745	      5.29927966	      0.00000000	    -26.22107468	      5.33614832	      6.77951656	      5.33344630	    -23.11623121	      6.26455985	     33.36026488	     86.51662706	      0.00000000	      0.00000000	     -4.26048177	     -9.77159780	     12.09402280	      4.31926323	     85.94366927	      0.00000000	      0.00000000
      2.40000000	     19.97567537	     -3.88121622	     -1.13142761	      0.71865062	      0.91455515	     -0.19112584	    -33.50172317	      1.61970611	     -9.19777495	    -37.82730094	    -17.97785276	     17.14158050	      0.00000000	      6.17012377	      0.79912534	   -354.03283232	    -31.98480249	      4.05050419	      4.84405358	      0.00000000	    -26.27667869	      4.62574427	      6.92713650	      4.71559125	    -22.85658353	      6.21132697	     32.89072421	     86.51662706	      0.00000000	      0.00000000	     -3.85913089	     -9.78021390	     12.18975420	      4.61687867	     85.94366927	      0.00000000	      0.00000000
      2.41000000	     19.58835036	     -3.05767574	     -2.13219715	      0.73195863	      0.91472392	     -0.19026905	    -30.82297376	      0.14008533	     -8.40774301	    -42.15973356	    -18.78763301	     13.83329540	      0.00000000	      5.76605409	      1.82619347	   -354.56798995	    -32.29392809	      4.67610229	      4.25618211	      0.00000000	    -25.98032876	      3.43593797	      7.39998109	      4.25330676	    -22.52966549	      6.11985684	     32.23691985	     86.51662706	      0.00000000	      0.00000000	     -3.41337506	     -9.81964515	     12.42230433	      4.96528627	     85.94366927	      0.00000000	      0.00000000
      2.42000000	     18.88461021	     -2.43480234	     -3.14606499	      0.74459489	      0.91417519	     -0.18930457	    -27.56623923	     -1.12747795	     -7.56517692	    -46.70317741	    -18.26149088	     10.82998363	      0.00000000	      5.82289942	      2.49978140	   -355.43777167	    -32.70823607	      5.66988821	      4.17533352	      0.00000000	    -25.38833737	      2.48028891	      7.95470618	      3.90740254	    -22.21090138	      6.10993040	     31.43939249	     86.51662706	      0.00000000	      0.00000000	     -2.91922223	     -9.83481949	     12.91195619	      5.35081656	     85.94366927	      0.00000000	      0.00000000
